<svg width="176" height="40" viewBox="0 0 176 40" fill="none" xmlns="http://www.w3.org/2000/svg">
<g clip-path="url(#clip0_2085_18328)">
<path d="M132.079 29.2952C126.959 29.2952 123.505 25.5529 123.505 20.1128C123.505 14.6725 126.959 10.9303 132.079 10.9303C137.198 10.9303 140.653 14.6725 140.653 20.1128C140.653 25.5529 137.181 29.2952 132.079 29.2952ZM132.079 5.59399C123.891 5.59399 117.263 12.091 117.263 20.1128C117.263 28.1344 123.891 34.6315 132.079 34.6315C140.267 34.6315 146.965 28.1344 146.965 20.1128C146.965 12.091 140.25 5.59399 132.079 5.59399Z" fill="black"/>
<path d="M82.7399 6.18307H76.4984V32.3099C76.4984 33.2454 77.2698 34.0251 78.2337 34.0251H94.1541V28.9487H82.7399V6.18307Z" fill="black"/>
<path d="M104.306 6.18307H98.0642V32.3099C98.0642 33.2454 98.8357 34.0251 99.8002 34.0251H117.316V28.9487H104.306V6.18307Z" fill="black"/>
<path d="M52.4423 24.8253L57.2464 14.0661L62.0681 24.8253H52.4423ZM59.0175 6.18307H55.493C54.8093 6.18307 54.1956 6.58157 53.9151 7.18794L41.6768 34.0251H48.3219L50.2506 29.7283H64.2599L66.1883 34.0251H72.8335L60.595 7.18794C60.3146 6.58157 59.7009 6.18307 59.0175 6.18307Z" fill="black"/>
<path d="M168.741 6.18307L160.974 18.8133L153.207 6.18307H145.966L157.362 23.8377C157.712 24.3921 157.905 25.0158 157.905 25.6742V34.0251H164.06V25.6742C164.06 25.0158 164.253 24.3921 164.603 23.8377L176 6.18307H168.741Z" fill="black"/>
<path d="M3.05081 2.50997C3.98008 1.97288 5.10221 1.97288 6.049 2.50997L7.4692 3.32426C6.62763 3.7574 6.03146 4.51973 5.80355 5.4553L1.70073 23.1273L1.56047 23.3698V5.05681C1.54294 3.99996 2.104 3.04706 3.05081 2.50997ZM1.61307 26.7829C1.578 26.7137 1.49034 26.523 1.61307 26.3152L5.08468 20.3726L12.7292 7.27446L12.9046 6.97997C13.0273 6.77203 13.2377 6.73736 13.3254 6.73736C13.413 6.73736 13.6235 6.75469 13.7462 6.97997L15.2891 9.61342L24.8798 26.0206L25.0552 26.3152C25.1078 26.4018 25.1253 26.4711 25.1253 26.5577C25.1253 26.6617 25.0903 26.7483 25.0552 26.8003C25.0201 26.8696 24.8974 27.0428 24.6344 27.0428H21.5485H2.38454H2.03387C1.78841 27.0255 1.66567 26.8523 1.61307 26.7829ZM26.3877 25.5528L19.1465 13.1651L28.8775 22.1051C29.3333 22.5209 29.5262 23.1446 29.386 23.751C29.2457 24.3574 28.8073 24.8252 28.2112 25.0157L26.3877 25.5528ZM30.9815 23.4738C31.0165 22.5382 30.6483 21.6373 29.947 20.9789L16.5164 8.64316L16.3762 8.38333L32.4017 17.5485C33.3309 18.0856 33.892 19.0385 33.892 20.1127C33.892 21.1868 33.3309 22.1397 32.4017 22.6768L30.9815 23.4738ZM11.572 6.20032L4.33074 18.6053L7.29391 5.80182C7.43412 5.19542 7.87248 4.72763 8.46859 4.55437C9.06476 4.36379 9.69596 4.51973 10.1518 4.93553L11.572 6.20032ZM2.01634 28.5502C2.03387 28.5502 2.03387 28.5502 2.01634 28.5502H16.4989L3.78721 32.4137C3.19107 32.6043 2.55987 32.4484 2.08647 32.0326C1.6306 31.6168 1.43774 30.993 1.578 30.3866L2.01634 28.5502ZM1.54294 33.5226C2.34947 34.025 3.31381 34.1636 4.24308 33.8691L21.7764 28.5502H22.0745L6.03146 37.698C5.10221 38.2351 3.98008 38.2351 3.03327 37.698C2.104 37.1609 1.54294 36.208 1.54294 35.1338V33.5226ZM6.82047 1.17591C5.40028 0.361611 3.69954 0.361611 2.27934 1.17591C0.841603 1.99021 0 3.44554 0 5.05681V26.523V26.5404V26.5577V35.1338C0 36.7624 0.841603 38.2004 2.27934 39.0148C3.69954 39.829 5.40028 39.829 6.82047 39.0148L25.6163 28.2903C25.6338 28.273 25.6514 28.273 25.6688 28.2556L33.1731 23.9762C34.5933 23.1619 35.435 21.7066 35.435 20.0953C35.435 18.4668 34.5933 17.0114 33.1731 16.2144L14.3598 5.47262C14.3423 5.47262 14.3423 5.4553 14.3248 5.4553L6.82047 1.17591Z" fill="black"/>
</g>
<defs>
<clipPath id="clip0_2085_18328">
<rect width="176" height="40" fill="white"/>
</clipPath>
</defs>
</svg>
