<svg width="164" height="58" viewBox="0 0 164 58" fill="none" xmlns="http://www.w3.org/2000/svg">
<g clip-path="url(#clip0_2272_17583)">
<g clip-path="url(#clip1_2272_17583)">
<path d="M107.663 41.732H107.625C100.87 46.5783 92.9008 51.6553 84.2863 57.0017L83.9447 57.194C83.9075 57.2095 83.8742 57.2333 83.8474 57.2638C83.8206 57.2942 83.801 57.3304 83.79 57.3696C83.7791 57.4089 83.777 57.4501 83.7841 57.4903C83.7911 57.5304 83.8071 57.5684 83.8308 57.6014C83.8544 57.6344 83.8852 57.6615 83.9207 57.6807C83.9562 57.6998 83.9956 57.7106 84.0358 57.7121C84.076 57.7136 84.116 57.7058 84.1528 57.6894C84.1897 57.6729 84.2223 57.6482 84.2483 57.6171L84.514 57.4632C91.8382 53.6169 100.225 49.0399 108.65 44.309L108.802 44.232C108.304 43.4591 107.921 42.6169 107.663 41.732V41.732ZM151.988 5.34626C141.363 -6.53872 72.8255 4.15391 43.7181 10.6156L43.035 10.7695C42.9682 10.7869 42.9092 10.8269 42.8678 10.8828C42.8265 10.9388 42.8051 11.0073 42.8073 11.0772C42.811 11.1119 42.8224 11.1454 42.8407 11.175C42.859 11.2046 42.8837 11.2296 42.913 11.2481C42.9422 11.2666 42.9752 11.2782 43.0095 11.2819C43.0438 11.2856 43.0784 11.2814 43.1109 11.2695L43.794 11.1541C67.93 6.80784 118.137 0.769197 128.915 11.6157C132.217 14.9235 131.458 19.1928 127.625 24.2314C129.741 25.6324 131.237 27.8112 131.799 30.3085C146.713 20.2698 156.732 10.6541 151.988 5.34626Z" fill="#CC2427"/>
<path d="M50.473 32.4241C49.6407 32.4267 48.8304 32.6959 48.1581 33.1934C47.4692 33.7757 47.0221 34.5996 46.9058 35.5011C46.6781 36.6935 46.7919 37.5012 47.2473 38.0397C47.5125 38.3009 47.828 38.504 48.174 38.6364C48.52 38.7687 48.8893 38.8275 49.2587 38.8089C49.8337 38.8207 50.4041 38.7024 50.9284 38.4627C51.4345 38.2255 51.8674 37.8532 52.1808 37.3858C52.5357 36.851 52.7809 36.2493 52.9018 35.6165C53.0916 34.5395 52.9398 33.7703 52.4464 33.2318C52.1946 32.9607 51.8878 32.7481 51.5471 32.6086C51.2065 32.4692 50.84 32.4062 50.473 32.4241V32.4241ZM38.6707 47.3476L41.8205 29.3471H47.513L47.0576 31.6548C47.681 30.8646 48.5087 30.2654 49.4484 29.924C50.6181 29.4398 51.8662 29.179 53.1295 29.1548C54.6096 29.1548 55.5203 29.2317 56.6209 29.8086C57.6643 30.3393 58.4758 31.244 58.8979 32.3472C59.3451 33.5099 59.4505 34.779 59.2015 36.0011C59.0435 37.0505 58.6801 38.0572 58.1327 38.9621C57.5853 39.8671 56.8648 40.6519 56.0137 41.2705C54.268 42.5398 52.7121 42.886 50.473 42.886C49.7955 42.8986 49.1193 42.821 48.4617 42.6552C48.0092 42.5554 47.5742 42.3868 47.1714 42.1552C46.7779 41.8675 46.421 41.5316 46.1088 41.1551L45.0462 47.3476H38.6707ZM104.362 42.6936H97.7583L101.098 24.0008L107.511 24.1546L104.362 42.6936ZM71.4212 29.1932L71.8766 26.4624L78.6317 25.0008L77.9106 29.1932H81.2502L80.6051 31.9241H77.3793L75.4439 42.6936H68.8786L70.852 31.9241H68.3853L68.8786 29.2317H71.4212V29.1932ZM18.823 37.8858C17.0545 38.2868 15.2463 38.4804 13.4342 38.4627C10.3603 38.4627 7.89353 36.9242 8.04533 34.0395C8.12123 32.1549 10.3603 28.1547 15.9768 28.1547C17.7558 28.1131 19.5087 28.5939 21.0241 29.5394L21.8211 24.8854C19.7958 24.0702 17.6221 23.703 15.4455 23.8085C8.04533 23.8854 0.948747 27.2701 0.0759049 34.1934C-0.796937 41.1167 7.66584 43.0013 11.4229 43.0013C13.586 43.0013 15.863 42.886 17.9502 42.6936L18.823 37.8858ZM90.8135 36.5396L89.713 36.8473L87.1704 37.3089C86.5689 37.3588 85.9858 37.5426 85.4626 37.8473C85.3099 37.9345 85.179 38.0561 85.0803 38.2029C84.9816 38.3497 84.9176 38.5176 84.8934 38.6935C84.848 38.8643 84.8565 39.0451 84.9178 39.2107C84.9791 39.3763 85.09 39.5182 85.2349 39.6166C85.5765 39.8474 86.1078 39.9243 86.8668 39.9243C87.4312 39.9259 87.9931 39.8483 88.5365 39.6935C89.0358 39.5455 89.5004 39.2969 89.9027 38.9628C90.1687 38.7262 90.3656 38.4202 90.472 38.0781C90.632 37.5769 90.7463 37.0619 90.8135 36.5396V36.5396ZM97.7963 32.1164C97.7583 32.7703 97.6445 33.3857 97.4927 34.3472L96.3162 41.0782C96.2536 41.3489 96.2833 41.6332 96.4005 41.8846C96.5176 42.136 96.7153 42.3399 96.9614 42.4629V42.6936H90.1684V40.9628C89.1462 41.5791 88.0491 42.0576 86.9047 42.3859C85.8389 42.6625 84.741 42.7918 83.641 42.7706C81.4779 42.7706 80.2256 42.5398 79.3527 41.7705C78.4799 41.0013 78.0624 40.4628 78.1004 39.3858C78.1723 38.6488 78.4634 37.9513 78.9353 37.3858C79.4315 36.8361 80.0403 36.4029 80.7189 36.1165C81.5753 35.7286 82.4831 35.4694 83.4133 35.3473C84.6277 35.1549 86.2975 34.9626 88.5365 34.7703C89.2878 34.6967 90.0272 34.5288 90.7376 34.2703C91.193 34.078 91.3828 33.8857 91.4587 33.5011C91.5346 33.1164 91.3828 32.4241 90.472 32.2318C88.0432 31.7318 83.4892 32.5395 81.1364 33.1164L82.3887 29.6548C85.3891 29.1712 88.4207 28.914 91.4587 28.8855C96.2783 28.924 97.8342 30.3471 97.7963 32.1164ZM59.0117 42.6936L61.3646 29.2702H67.854L65.5011 42.6936H59.0117ZM61.7441 26.1931C61.9338 25.0777 63.6416 24.1931 65.577 24.1931C67.5124 24.1931 68.8786 25.0777 68.6889 26.1931C68.4991 27.3086 66.7914 28.1932 64.856 28.1932C62.9205 28.1932 61.5543 27.2701 61.7441 26.1931ZM32.447 36.5011C32.0931 36.6465 31.7238 36.7498 31.3464 36.8088L28.8417 37.2704C28.2273 37.3147 27.6306 37.4987 27.0961 37.8089C26.9423 37.9043 26.8115 38.0332 26.7131 38.1862C26.6146 38.3392 26.551 38.5125 26.5268 38.6935C26.4878 38.8627 26.5036 39.0402 26.572 39.1996C26.6403 39.3589 26.7576 39.4917 26.9063 39.5782C27.3913 39.8529 27.9467 39.9736 28.5002 39.9243C29.0664 39.9129 29.6283 39.8223 30.17 39.6551C30.6692 39.507 31.1338 39.2584 31.5362 38.9243C31.8021 38.6877 31.999 38.3817 32.1054 38.0397C32.2896 37.5455 32.4046 37.0276 32.447 36.5011V36.5011ZM39.4297 32.1164C39.3917 32.7703 39.2779 33.3472 39.1261 34.3472L37.9497 41.0397C37.8871 41.3105 37.9168 41.5947 38.0339 41.8461C38.1511 42.0976 38.3488 42.3014 38.5948 42.4244V42.6936H31.8018V41.0013C30.7706 41.5896 29.6753 42.0542 28.5381 42.3859C27.4867 42.6739 26.4016 42.8162 25.3124 42.809C23.1113 42.809 21.859 42.5782 21.0241 41.809C20.1892 41.0397 19.6959 40.5013 19.7338 39.3858C19.8153 38.6629 20.1058 37.9805 20.5687 37.4242C21.0627 36.8625 21.6713 36.4163 22.3524 36.1165C23.2265 35.7413 24.1449 35.4828 25.0847 35.3473C26.2612 35.1549 27.931 34.9626 30.17 34.7703C30.9284 34.7472 31.6755 34.5775 32.3711 34.2703C32.8644 34.078 33.0162 33.8857 33.0921 33.5011C33.168 33.1164 33.0162 32.4241 32.1054 32.2318C29.6766 31.7702 25.1227 32.5395 22.7698 33.1549L24.0221 29.6548C27.0227 29.1727 30.0542 28.9156 33.0921 28.8855C37.9117 28.8855 39.4676 30.3086 39.4297 32.1164V32.1164Z" fill="#013D5B"/>
<path d="M130.774 33.9241L132.254 33.7703C132.748 33.7703 133.165 33.8857 133.203 34.3472C133.241 34.8088 132.71 36.655 132.596 37.155L131.571 41.6551C131.192 43.5013 130.736 45.4245 130.357 46.963H132.937L134.38 39.8089C138.858 35.1165 140.565 33.578 141.59 33.578C141.703 33.5659 141.816 33.5794 141.923 33.6177C142.03 33.6559 142.127 33.7178 142.207 33.799C142.287 33.8801 142.348 33.9784 142.386 34.0865C142.423 34.1947 142.437 34.3101 142.425 34.4241C142.463 35.2319 141.932 37.1165 141.78 37.655L140.262 42.8475C139.958 44.0398 139.693 45.0783 139.73 45.8476C139.768 46.6168 140.452 47.5015 141.438 47.5015C143.336 47.5015 144.74 45.5014 145.916 43.5398L145.575 42.8859C145.081 43.6552 143.981 45.386 143.07 45.386C142.804 45.386 142.539 45.1937 142.539 44.7321C142.569 44.0127 142.697 43.301 142.918 42.6167L144.588 36.5011C145.005 34.8088 145.233 33.7318 145.233 33.1549C145.233 32.5779 144.512 31.501 143.525 31.501C141.818 31.501 139.541 32.7702 134.759 38.3473H134.683L135.29 35.6165C135.632 34.1164 135.936 32.5779 136.239 31.501C134.441 32.1485 132.603 32.6753 130.736 33.078L130.774 33.9241ZM156.163 34.078C156.125 33.001 155.593 32.2702 154.493 32.2702C151.836 32.2702 149.028 37.5396 148.535 39.6551C152.861 39.6551 156.277 37.0396 156.163 34.078V34.078ZM156.732 42.3475L157.225 42.6936C155.935 45.3476 153.316 47.5015 150.205 47.5015C147.662 47.5015 145.613 45.8091 145.499 42.6167C145.271 36.8473 150.622 31.501 154.948 31.501C156.808 31.501 158.554 32.3472 158.629 34.3857C158.781 38.9627 152.444 40.3474 148.269 40.4243C148.132 40.9771 148.081 41.548 148.117 42.1167C148.193 44.0398 149.332 45.6168 151.647 45.6168C153.962 45.6168 155.707 43.9629 156.732 42.3475ZM111.989 38.6166C112.103 42.809 114.722 46.2322 118.137 46.2322C124.74 46.2322 127.549 38.0012 127.359 32.501C127.207 28.3086 124.551 24.8854 121.135 24.8854C115.443 24.8854 111.762 33.078 111.989 38.6166ZM108.498 38.3858C108.232 31.2317 113.773 23.9238 121.78 23.9238C127.169 23.9238 130.661 27.5778 130.85 33.1164C131.116 40.6551 125.955 47.5784 117.568 47.5784C112.179 47.5784 108.688 43.9629 108.498 38.3858Z" fill="#013D5B"/>
</g>
<path d="M159.339 29.2162C159.339 27.8528 160.421 26.8682 161.688 26.8682C162.956 26.8682 164 27.8528 164 29.2162C164 30.5796 162.919 31.5642 161.688 31.5642C160.383 31.5642 159.339 30.5796 159.339 29.2162ZM161.688 31.1855C162.732 31.1855 163.552 30.3523 163.552 29.2162C163.552 28.1179 162.732 27.2848 161.688 27.2848C160.644 27.2848 159.824 28.1179 159.824 29.2162C159.787 30.3523 160.607 31.1855 161.688 31.1855ZM161.166 30.5796H160.756V27.8907H161.762C162.396 27.8907 162.694 28.1179 162.694 28.6481C162.694 29.1405 162.396 29.3298 161.986 29.4056L162.732 30.5796H162.285L161.576 29.4056H161.129V30.5796H161.166V30.5796ZM161.651 29.0647C161.986 29.0647 162.285 29.0268 162.285 28.6103C162.285 28.2694 161.986 28.2315 161.688 28.2315H161.129V29.0647H161.651Z" fill="black"/>
</g>
<defs>
<clipPath id="clip0_2272_17583">
<rect width="164" height="58" fill="white"/>
</clipPath>
<clipPath id="clip1_2272_17583">
<rect width="158.63" height="57.694" fill="white"/>
</clipPath>
</defs>
</svg>
